<?xml version="1.0" standalone="no"?>
<!DOCTYPE svg PUBLIC "-//W3C//DTD SVG 20010904//EN"
 "http://www.w3.org/TR/2001/REC-SVG-20010904/DTD/svg10.dtd">
<svg version="1.0" xmlns="http://www.w3.org/2000/svg"
 width="1460.000000pt" height="211.000000pt" viewBox="0 0 1460.000000 211.000000"
 preserveAspectRatio="xMidYMid meet">
<metadata>
Created by potrace 1.16, written by Peter Selinger 2001-2019
</metadata>
<g transform="translate(0.000000,211.000000) scale(0.100000,-0.100000)"
fill="#000000" stroke="none">
<path d="M8185 1935 c-319 -69 -572 -308 -672 -632 -24 -78 -27 -104 -27 -233
0 -157 12 -227 61 -349 65 -164 184 -310 333 -410 323 -216 749 -196 1055 50
233 188 359 488 325 779 -14 127 -34 198 -81 299 -117 251 -353 440 -617 497
-83 17 -296 17 -377 -1z m355 -181 c250 -58 457 -264 527 -524 27 -99 24 -273
-6 -370 -72 -236 -238 -406 -482 -491 -54 -19 -85 -23 -204 -23 -128 0 -147 2
-220 27 -316 110 -511 398 -492 727 10 182 82 337 217 472 62 61 97 86 171
122 52 25 121 52 154 60 81 19 254 20 335 0z"/>
<path d="M8230 1571 c-96 -31 -163 -72 -231 -141 -165 -168 -202 -398 -98
-608 51 -104 127 -183 224 -233 73 -38 186 -69 253 -69 54 0 180 34 240 64 67
34 157 118 204 190 192 297 28 711 -317 801 -79 20 -206 19 -275 -4z m311
-202 c116 -62 183 -179 184 -319 0 -66 -5 -85 -33 -142 -38 -78 -101 -139
-180 -176 -77 -36 -193 -37 -267 -4 -78 35 -121 69 -159 125 -119 176 -66 413
115 512 72 39 101 45 195 41 70 -3 91 -9 145 -37z"/>
<path d="M99 1848 c11 -18 102 -177 203 -353 531 -923 614 -1065 623 -1062 12
4 24 25 410 700 175 306 322 557 325 557 4 0 84 -132 177 -292 325 -559 348
-598 358 -595 5 2 124 204 265 450 l255 447 103 0 c56 0 102 -4 102 -8 0 -14
-718 -1256 -728 -1260 -8 -2 -234 377 -452 761 -40 70 -75 127 -79 127 -3 0
-21 -24 -39 -54 -50 -85 -315 -545 -414 -721 -50 -88 -108 -191 -129 -228 -22
-38 -39 -73 -39 -78 0 -5 45 -9 99 -9 l99 0 59 102 c33 57 127 221 209 365 82
145 151 263 154 263 3 0 91 -147 194 -327 104 -181 200 -345 213 -365 l23 -38
100 0 100 0 33 52 c19 29 130 222 247 428 118 206 316 554 441 773 l228 397
-316 -2 -316 -3 -202 -355 c-111 -195 -206 -355 -212 -357 -8 -3 -350 573
-407 685 l-17 32 -107 0 -107 0 -311 -542 c-171 -298 -315 -543 -320 -545 -5
-2 -27 30 -50 70 -22 39 -138 242 -257 449 -119 208 -217 380 -217 383 0 3 46
5 103 5 l104 0 154 -266 c85 -146 159 -266 164 -265 6 0 31 37 57 82 l47 83
-24 40 c-14 23 -85 145 -157 273 l-133 232 -317 1 -317 0 18 -32z"/>
<path d="M3664 1842 c-11 -20 -219 -384 -462 -807 -242 -424 -444 -778 -448
-788 -6 -16 12 -17 307 -15 l314 3 310 542 c171 298 315 541 320 539 6 -1 28
-34 49 -72 82 -145 450 -780 464 -802 l15 -23 -108 3 -107 3 -152 261 c-83
144 -154 263 -158 265 -5 2 -30 -34 -57 -81 l-50 -85 32 -55 c17 -30 88 -154
158 -275 l127 -220 312 -3 c278 -2 312 -1 306 13 -3 9 -66 120 -140 248 -73
127 -256 446 -406 707 -149 261 -275 479 -279 483 -7 7 -297 -487 -651 -1108
l-86 -150 -108 -3 c-59 -1 -106 1 -103 5 95 162 827 1444 827 1448 0 3 -46 5
-102 5 l-103 0 -21 -38z"/>
<path d="M4380 1876 c0 -4 493 -863 756 -1316 39 -68 76 -126 81 -127 5 -2 31
36 59 84 28 49 187 327 354 618 167 292 310 537 318 545 8 9 16 11 18 5 12
-30 512 -879 520 -882 5 -2 20 16 34 40 13 23 129 224 256 447 l232 405 106 3
c58 1 106 1 106 -1 0 -1 -73 -131 -163 -287 -90 -157 -253 -440 -361 -630
-109 -190 -202 -349 -206 -353 -6 -7 -122 187 -456 768 -38 66 -74 120 -79
119 -6 -1 -54 -77 -108 -170 -159 -272 -507 -882 -513 -899 -6 -14 7 -15 97
-13 l103 3 53 90 c30 50 123 212 207 360 84 149 157 270 161 270 5 0 42 -58
83 -130 42 -71 136 -235 210 -363 l134 -233 106 3 105 3 289 505 c158 278 368
644 466 814 97 170 179 313 180 318 2 4 -138 8 -310 8 l-314 0 -204 -360
c-113 -198 -208 -360 -212 -360 -9 0 -174 277 -320 537 l-103 183 -109 -3
-108 -2 -312 -542 c-171 -299 -314 -543 -317 -543 -8 0 -519 886 -519 901 0 6
38 9 102 7 l103 -3 155 -267 c85 -148 157 -268 160 -268 3 0 27 39 54 86 38
66 47 90 40 103 -6 9 -77 132 -158 274 l-149 257 -313 0 c-173 0 -314 -2 -314
-4z"/>
<path d="M9452 1058 l3 -823 270 0 270 0 3 260 2 260 -87 101 -88 102 -3 -269
-2 -269 -95 0 -95 0 0 640 0 640 143 0 142 0 473 -550 c261 -303 478 -550 483
-550 5 0 9 226 9 550 l0 550 90 0 90 0 0 -640 0 -640 -143 0 -143 0 -475 551
-474 552 -3 -137 -3 -136 427 -498 c235 -273 434 -503 443 -510 12 -9 78 -12
281 -10 l265 3 3 823 2 822 -270 0 -270 0 0 -395 c0 -310 -3 -395 -12 -394 -7
0 -165 178 -351 395 l-338 394 -274 0 -275 0 2 -822z"/>
<path d="M11572 1058 l3 -823 270 0 270 0 3 84 c2 61 -1 87 -10 92 -7 5 -91 9
-186 9 l-172 0 2 638 3 637 90 0 90 0 3 -548 2 -548 88 3 87 3 3 638 2 637
-275 0 -275 0 2 -822z"/>
<path d="M13115 1865 c-400 -74 -684 -439 -662 -850 7 -117 19 -172 59 -273
77 -189 232 -350 420 -436 155 -71 151 -71 758 -71 l545 0 3 273 2 272 -90 0
-90 0 0 -180 0 -180 -448 0 c-503 0 -507 1 -643 71 -303 158 -425 545 -269
854 92 183 251 301 458 341 56 11 172 14 488 14 l415 0 -3 -92 -3 -93 -455 -5
-455 -5 -68 -32 c-269 -128 -349 -458 -169 -696 53 -68 115 -115 200 -149 55
-22 69 -23 410 -26 l352 -3 0 90 0 90 -342 3 c-330 3 -345 4 -383 25 -93 50
-154 147 -155 244 0 110 56 205 148 251 l47 23 525 5 525 5 3 273 2 272 -527
-1 c-387 -1 -547 -4 -598 -14z"/>
</g>
</svg>
